<?xml version="1.0" standalone="no"?>
<!DOCTYPE svg PUBLIC "-//W3C//DTD SVG 20010904//EN"
 "http://www.w3.org/TR/2001/REC-SVG-20010904/DTD/svg10.dtd">
<svg version="1.0" xmlns="http://www.w3.org/2000/svg"
 width="16.000000pt" height="16.000000pt" viewBox="0 0 16.000000 16.000000"
 preserveAspectRatio="xMidYMid meet">
<metadata>
Created by potrace 1.11, written by Peter Selinger 2001-2013
</metadata>
<g transform="translate(0.000000,16.000000) scale(0.003125,-0.003125)"
fill="#000000" stroke="none">
<path d="M1376 5109 c4 -7 -2 -10 -18 -8 -27 4 -118 -49 -118 -68 0 -7 5 -13
11 -13 6 0 3 -7 -5 -16 -19 -19 -20 -26 -4 -42 9 -9 9 -12 -2 -12 -10 -1 -6
-8 10 -22 20 -17 21 -20 5 -14 -11 5 -28 11 -37 13 -10 3 -18 14 -18 24 0 11
-3 19 -7 19 -12 0 -39 -20 -29 -20 6 0 1 -7 -10 -15 -18 -14 -18 -16 -1 -29
12 -9 14 -16 8 -21 -6 -3 -11 -1 -11 5 0 7 -6 10 -12 8 -7 -3 -13 -10 -13 -17
0 -16 -43 -40 -72 -41 -12 0 -25 -4 -28 -10 -8 -13 6 -13 39 0 25 9 56 5 56
-9 0 -3 -22 -17 -49 -30 -35 -17 -58 -22 -80 -18 -18 4 -31 2 -31 -3 0 -6 17
-10 38 -10 43 -1 28 -14 -28 -24 -26 -5 -31 -4 -20 3 13 9 13 11 -2 11 -15 0
-48 -35 -48 -51 0 -3 12 -4 26 -1 19 3 25 1 20 -6 -7 -12 -74 -10 -95 2 -6 4
-11 3 -11 -3 0 -5 5 -13 10 -16 17 -10 11 -25 -9 -25 -20 0 -35 -35 -23 -54 3
-6 7 -17 8 -24 3 -16 1 -14 34 -30 l25 -12 -25 5 c-23 6 -23 5 -8 -8 10 -8 15
-17 11 -21 -14 -13 -12 -38 3 -32 8 3 14 2 14 -3 0 -5 14 -22 31 -39 l32 -31
-26 4 c-19 4 -27 0 -32 -15 -3 -11 -11 -20 -16 -20 -5 0 -9 -8 -9 -18 0 -15
-8 -19 -41 -19 -49 0 -63 -17 -65 -82 -1 -24 -6 -46 -10 -50 -13 -9 -10 -46 4
-64 10 -11 9 -17 -3 -27 -11 -9 -12 -16 -5 -26 8 -9 7 -15 -2 -21 -18 -11 -19
-43 -2 -43 22 0 16 -28 -16 -75 -16 -24 -30 -53 -30 -64 0 -11 -8 -26 -17 -33
-19 -14 -101 -164 -84 -154 16 10 10 -63 -8 -86 -21 -28 -42 -84 -33 -92 3 -3
6 -25 8 -49 1 -23 4 -58 6 -77 3 -19 1 -47 -3 -62 -10 -36 -1 -65 22 -71 14
-4 19 -14 19 -40 0 -20 5 -39 11 -42 6 -4 9 -21 7 -38 -2 -24 1 -32 13 -32 9
0 23 -5 30 -12 8 -6 25 -13 38 -15 24 -3 24 -4 7 -21 -21 -21 -14 -32 27 -42
18 -5 27 -3 27 5 0 6 5 8 11 4 8 -5 8 -8 0 -14 -14 -8 43 -56 74 -61 27 -6 55
-59 61 -116 3 -26 15 -77 26 -113 13 -40 20 -86 19 -121 -1 -31 5 -75 14 -100
9 -24 26 -80 39 -124 13 -44 28 -90 34 -102 7 -12 12 -38 12 -58 0 -69 49
-148 112 -181 15 -8 50 -14 79 -14 45 0 50 2 44 17 -22 57 -74 301 -76 355 -2
70 9 138 22 138 5 0 18 18 29 40 11 22 26 40 33 39 9 0 9 -2 0 -6 -7 -2 -13
-9 -13 -14 0 -6 4 -8 9 -5 4 3 8 -67 7 -157 -1 -153 1 -169 31 -277 28 -103
43 -218 44 -342 0 -16 3 -28 7 -28 5 0 9 -16 10 -37 2 -20 6 -41 10 -47 3 -6
8 -20 9 -31 2 -11 11 -36 20 -55 10 -19 16 -38 15 -42 -1 -5 3 -8 8 -8 6 0 10
-7 10 -15 0 -23 22 -65 31 -59 5 3 9 -2 9 -11 0 -8 12 -34 26 -58 32 -50 148
-202 181 -236 12 -13 33 -37 45 -53 13 -17 34 -40 46 -52 13 -11 34 -34 45
-51 l22 -29 -38 29 c-21 17 -49 47 -63 67 -57 81 -62 51 -23 -132 28 -132 34
-188 20 -174 -6 6 -15 30 -19 55 l-8 44 -18 -70 c-38 -153 -34 -143 -69 -150
-53 -12 -123 -52 -320 -183 -190 -127 -390 -296 -473 -402 -20 -25 -50 -53
-67 -62 -30 -16 16 -17 921 -18 807 0 952 2 952 14 0 8 -7 16 -15 20 -8 3 -15
10 -15 15 0 6 7 8 15 5 9 -4 15 0 15 9 0 16 -52 33 -70 22 -16 -10 -11 21 6
36 14 11 13 14 -3 23 -46 27 -83 61 -83 78 0 10 10 28 23 41 l22 22 -22 3
c-23 3 -33 32 -12 32 6 0 9 6 6 14 -8 20 22 58 41 51 9 -3 28 7 49 27 30 29
40 33 96 33 34 1 71 5 81 10 13 6 21 5 24 -3 6 -19 50 -14 65 9 12 17 21 19
51 14 20 -4 39 -11 42 -16 8 -13 34 -11 31 2 -1 6 4 14 10 16 7 3 13 0 13 -6
0 -10 4 -10 45 4 19 6 19 7 -3 25 -13 11 -31 17 -40 14 -14 -5 -14 -4 -2 4 8
6 27 8 42 5 17 -3 37 1 52 11 14 9 31 14 38 13 7 -2 10 -2 6 0 -11 7 3 33 18
33 22 0 84 33 84 44 0 6 5 4 11 -4 8 -11 12 -12 16 -2 2 6 11 12 19 12 8 0 11
6 8 15 -8 20 16 19 31 -2 11 -14 13 -13 19 10 8 32 22 35 29 7 3 -11 13 -20
22 -20 9 0 19 9 22 20 7 24 11 25 36 3 11 -10 17 -12 13 -5 -4 7 -1 28 8 47 9
18 13 40 10 49 -6 16 3 20 40 16 14 -1 18 3 13 19 -3 11 -2 20 2 19 24 -3 33
4 28 21 -3 14 -1 18 10 14 9 -4 16 2 20 16 3 12 13 21 25 21 14 0 18 5 14 16
-5 13 -2 15 14 11 15 -4 24 3 37 30 9 19 22 37 30 40 7 3 13 16 13 29 0 14 7
27 15 30 8 4 15 12 15 20 0 8 6 11 16 7 9 -3 20 0 25 8 7 12 9 12 9 0 0 -11 3
-11 16 0 8 7 13 21 10 32 -2 10 4 27 15 38 10 10 19 25 19 33 0 23 18 28 29 9
6 -10 11 -12 11 -6 0 7 -9 18 -20 25 -24 15 -25 24 -4 32 9 3 12 2 9 -5 -4 -6
-1 -16 7 -22 34 -28 43 -95 42 -347 0 -305 -9 -350 -116 -615 -38 -93 -100
-220 -109 -223 -48 -18 70 -22 681 -22 l690 0 0 275 0 275 -32 15 c-73 33
-432 156 -563 194 -77 21 -179 58 -227 80 -48 23 -96 41 -106 41 -40 0 -84 43
-107 105 -30 81 -82 184 -111 218 -18 21 -24 41 -24 75 -1 26 -5 78 -9 115 -8
60 -7 75 15 130 13 34 22 68 19 75 -2 7 -1 11 4 8 15 -10 77 254 68 290 -3 11
-5 6 -6 -14 -2 -48 -18 -74 -42 -67 -14 5 -19 2 -19 -14 0 -11 -4 -23 -10 -26
-6 -3 -10 -19 -10 -35 0 -15 -4 -30 -8 -32 -5 -2 -5 -14 -1 -28 l7 -25 7 23
c6 19 25 32 25 16 0 -15 -22 -44 -34 -44 -17 0 -30 -31 -18 -39 13 -9 6 -40
-15 -64 -12 -14 -13 -18 -3 -12 8 4 5 -3 -7 -17 -13 -13 -23 -31 -23 -40 0 -8
-9 -25 -20 -38 -11 -13 -20 -29 -20 -37 0 -8 -5 -11 -11 -7 -8 4 -9 -1 -4 -16
5 -17 4 -21 -6 -15 -9 6 -11 3 -6 -9 5 -12 2 -16 -10 -14 -10 2 -18 -3 -18
-12 0 -9 -8 -14 -19 -12 -14 3 -17 -1 -12 -13 3 -9 2 -14 -3 -10 -15 9 -40 -6
-34 -21 3 -8 0 -14 -7 -14 -10 0 -10 -3 0 -15 11 -13 9 -15 -13 -15 -14 0 -28
-7 -32 -18 -5 -14 -4 -15 6 -5 7 7 20 13 28 12 13 0 13 -2 2 -6 -16 -6 -50
-39 -53 -50 0 -5 -9 -7 -20 -5 -10 2 -18 -2 -18 -8 0 -6 4 -8 10 -5 6 4 7 -1
3 -11 -4 -12 -8 -14 -11 -6 -2 8 -19 -4 -42 -28 -21 -22 -42 -40 -46 -40 -5 0
-2 5 6 11 13 9 13 10 0 6 -8 -2 -14 -12 -12 -22 2 -9 -1 -14 -7 -11 -5 4 -15
-4 -21 -16 -10 -21 -10 -22 3 -5 9 10 18 14 21 9 3 -5 -5 -22 -18 -37 -22 -25
-24 -26 -29 -9 -4 16 -5 15 -6 -4 -1 -19 -5 -22 -21 -17 -13 4 -22 1 -26 -8
-3 -9 -13 -13 -25 -10 -11 3 -28 -2 -38 -11 -10 -9 -20 -13 -23 -10 -3 3 -14
-7 -25 -21 -35 -51 -64 -81 -56 -61 6 19 6 19 -19 0 -14 -10 -24 -24 -21 -30
2 -7 0 -15 -6 -19 -7 -3 -8 0 -5 9 6 16 -5 21 -34 17 -8 -1 -19 1 -26 6 -6 4
-3 0 7 -9 12 -11 17 -24 13 -35 -4 -10 -10 -13 -14 -8 -4 6 -16 12 -27 13 -11
2 -17 1 -13 -4 4 -4 3 -13 -3 -21 -9 -10 -15 -11 -26 -2 -11 10 -12 8 -6 -7 6
-17 5 -17 -10 -5 -14 11 -17 11 -17 0 -1 -9 -4 -8 -11 4 -6 9 -15 15 -21 11
-5 -4 -20 6 -32 21 -17 22 -25 25 -31 15 -5 -8 -4 -11 3 -6 11 6 28 -11 19
-20 -8 -8 -37 8 -37 21 0 7 -7 18 -15 25 -12 10 -12 7 1 -19 9 -17 20 -31 25
-31 5 0 9 -7 9 -15 0 -21 -8 -19 -32 8 -14 16 -18 17 -14 5 3 -10 1 -20 -5
-23 -5 -4 -6 -11 -3 -17 4 -7 2 -8 -5 -4 -9 6 -9 11 0 22 6 8 10 14 8 15 -2 0
-24 2 -49 4 -50 3 -69 -3 -49 -16 11 -7 11 -9 -1 -9 -13 0 -13 -1 0 -10 12 -7
10 -9 -7 -8 -14 2 -19 7 -15 18 4 12 2 13 -9 3 -7 -7 -24 -13 -38 -13 -23 0
-23 -1 -7 -19 13 -14 14 -21 5 -27 -7 -4 -10 -3 -6 3 8 13 -26 42 -50 43 -5 0
1 7 12 16 18 14 17 14 -19 9 -27 -5 -36 -3 -31 5 4 7 -2 14 -15 17 -12 3 -17
9 -11 12 7 5 7 17 2 36 -5 17 -10 24 -10 18 -1 -15 -22 -13 -34 2 -5 6 -7 5
-5 -3 2 -8 7 -13 12 -12 11 2 26 -22 20 -32 -3 -4 -10 -8 -15 -8 -6 0 -7 5 -4
10 3 6 0 10 -7 10 -9 0 -15 14 -16 40 -2 32 0 39 13 34 8 -3 12 -10 9 -15 -3
-5 0 -9 6 -9 8 0 10 9 5 27 -6 27 -6 27 14 9 12 -11 21 -16 21 -11 0 4 7 2 15
-5 12 -10 15 -10 15 0 0 7 6 10 13 7 8 -3 14 1 14 9 0 7 -5 10 -11 7 -6 -3 -5
0 2 8 14 15 16 33 3 24 -5 -3 -12 3 -14 12 -3 11 -6 6 -7 -12 -2 -29 -2 -30
-9 -5 -9 30 -3 50 14 50 8 0 17 9 20 21 5 16 9 18 21 8 12 -10 13 -9 8 5 -3 9
-15 21 -25 26 -15 9 -17 6 -13 -18 3 -23 2 -24 -7 -9 -8 14 -14 16 -25 6 -8
-6 -18 -9 -21 -5 -4 4 -1 11 7 16 8 6 11 10 5 10 -5 0 -3 5 5 10 9 6 11 10 3
10 -7 0 -10 7 -7 15 4 8 1 15 -5 15 -6 0 -2 9 9 20 22 22 38 27 23 8 -5 -7 -6
-24 -2 -38 5 -18 7 -20 8 -6 1 12 6 16 16 12 12 -4 14 0 9 22 l-7 27 22 -25
c13 -14 31 -24 42 -22 10 2 19 -2 19 -8 0 -6 5 -8 11 -5 7 5 5 15 -5 31 -22
33 -20 41 4 14 11 -13 20 -26 20 -30 0 -15 -30 -32 -45 -26 -17 6 -19 -2 -6
-23 6 -10 10 -10 16 -1 4 6 14 9 22 6 8 -3 11 -1 8 4 -3 6 -2 10 3 10 5 0 8
10 8 23 -1 12 0 27 3 32 9 16 11 76 3 71 -4 -2 -6 14 -4 37 2 32 1 38 -7 27
-9 -12 -11 -11 -11 8 0 12 -5 22 -11 22 -5 0 -8 -4 -4 -9 5 -9 -94 -5 -103 4
-3 2 -13 0 -23 -6 -14 -7 -19 -6 -19 3 0 9 -2 10 -8 2 -5 -9 -10 -9 -19 1 -6
6 -8 16 -5 21 14 18 49 32 62 24 7 -4 20 -6 28 -3 8 3 28 6 46 7 26 1 31 4 28
25 -1 17 2 22 13 17 8 -3 15 -2 15 3 0 5 -10 11 -22 14 -21 6 -21 7 -5 25 13
14 14 21 5 30 -9 9 -8 12 5 12 9 0 17 -6 17 -12 1 -7 8 -2 16 12 10 16 13 18
9 6 -6 -19 -5 -19 13 -3 21 19 33 14 26 -11 -3 -10 1 -7 7 5 15 28 35 36 60
23 15 -8 19 -7 19 4 0 11 8 12 38 5 50 -12 62 -11 59 3 -1 6 6 14 16 16 26 5
21 -13 -8 -28 -15 -8 -25 -22 -25 -36 0 -13 -4 -26 -10 -29 -5 -3 -10 -12 -10
-18 0 -7 5 -4 11 5 10 18 37 14 51 -6 4 -6 8 4 9 22 2 45 3 49 12 58 4 4 7 -3
7 -15 0 -38 27 -26 107 46 20 18 41 29 46 26 6 -3 7 -1 4 5 -9 13 2 44 13 37
5 -3 11 4 15 15 3 11 13 20 20 20 8 0 17 11 21 25 3 14 10 25 15 25 5 0 9 5 9
11 0 6 16 25 35 41 19 17 32 35 29 40 -4 5 3 4 14 -3 12 -8 21 -24 21 -39 1
-14 1 -58 1 -98 0 -65 3 -75 20 -79 11 -3 20 -9 20 -14 0 -5 5 -9 11 -9 6 0 8
7 5 16 -4 10 0 18 13 21 14 4 18 14 18 51 0 25 4 47 10 49 5 2 8 30 7 63 -1
33 2 60 8 60 5 0 8 20 5 45 -2 24 0 46 5 47 5 2 11 32 12 68 3 56 -1 70 -25
109 -16 24 -26 48 -23 53 3 5 -3 12 -15 15 -23 6 -28 19 -8 26 8 3 5 12 -11
27 -13 12 -21 28 -18 35 2 7 -6 18 -20 25 -17 10 -21 17 -13 26 12 14 -5 29
-21 19 -5 -3 -10 -1 -10 4 0 6 7 11 15 11 8 0 15 4 15 10 0 5 -13 7 -32 3 -26
-5 -30 -4 -25 10 4 11 1 17 -7 17 -8 0 -17 8 -21 17 -7 17 -8 16 -15 -2 -8
-18 -9 -18 -9 -2 -1 20 -31 56 -31 37 0 -6 -12 -2 -26 9 -30 24 -53 27 -56 9
-4 -36 -2 -44 12 -56 10 -9 11 -11 1 -6 -10 5 -12 3 -7 -5 5 -7 15 -10 25 -6
13 5 14 4 4 -6 -7 -7 -13 -17 -13 -23 0 -5 3 -7 6 -3 3 3 18 -5 32 -19 15 -13
30 -24 34 -24 5 0 8 -7 8 -16 0 -8 4 -13 9 -10 5 3 11 -4 14 -15 3 -12 9 -19
14 -16 4 3 16 -6 26 -19 10 -13 13 -24 7 -24 -7 0 -8 -6 -1 -19 6 -10 7 -21 3
-25 -3 -4 1 -4 10 -1 12 5 16 2 14 -12 -3 -21 -33 -30 -49 -14 -7 7 -7 11 -1
11 6 0 11 7 11 14 0 11 -5 13 -19 5 -10 -5 -18 -12 -18 -14 0 -12 42 -45 50
-40 6 4 10 1 10 -4 0 -6 -4 -11 -10 -11 -5 0 -9 -5 -7 -12 2 -14 -23 -18 -38
-7 -6 4 -10 -3 -10 -17 0 -27 10 -32 19 -8 5 13 9 14 21 4 9 -7 13 -15 10 -18
-3 -3 0 -11 6 -19 6 -7 8 -13 4 -13 -5 0 0 -9 11 -21 16 -17 16 -22 4 -29 -19
-12 -67 -13 -74 -1 -3 5 -14 7 -25 4 -10 -2 -34 0 -52 5 -22 6 -43 6 -59 -1
-14 -5 -33 -9 -42 -8 -12 1 -18 -4 -18 -16 0 -19 -26 -46 -48 -50 -7 -2 -12 6
-12 17 0 17 5 19 25 14 22 -6 25 -3 25 22 -1 28 -1 28 -15 10 -9 -12 -15 -15
-15 -7 0 10 -3 11 -13 2 -8 -6 -17 -8 -20 -4 -6 6 -11 -11 -8 -29 0 -5 -3 -8
-9 -8 -5 0 -6 -7 -3 -17 4 -11 3 -14 -5 -9 -7 4 -12 2 -12 -4 0 -6 -8 -10 -17
-8 -10 2 -19 -5 -21 -15 -3 -15 1 -18 20 -16 12 2 29 -1 37 -5 9 -6 18 -3 26
8 7 9 27 21 43 26 27 7 32 5 38 -12 6 -21 7 -21 24 2 16 22 18 22 27 5 10 -17
11 -17 21 2 6 11 9 22 7 25 -2 2 10 4 28 3 28 0 32 -3 29 -25 -1 -13 -18 -37
-37 -53 -19 -16 -35 -37 -35 -48 0 -12 -10 -23 -26 -30 -15 -5 -40 -21 -57
-35 -18 -15 -38 -23 -49 -21 -10 3 -18 1 -18 -3 0 -13 -87 -52 -107 -48 -10 2
-25 -4 -35 -14 -18 -18 -114 -34 -146 -24 -11 4 -23 2 -27 -4 -9 -15 -100 -12
-140 4 -21 9 -37 11 -40 5 -10 -15 -59 -10 -82 10 -44 37 -46 142 -3 156 39
12 72 -25 83 -95 3 -15 5 -7 6 18 0 24 5 51 11 61 12 24 101 37 133 19 29 -16
46 -18 53 -7 3 5 -1 9 -8 9 -7 1 16 11 52 24 55 19 68 21 89 10 18 -10 28 -10
42 -1 29 18 24 40 -7 33 -15 -4 -23 -3 -20 3 3 5 -1 11 -9 15 -8 3 -15 1 -15
-5 0 -6 -6 -9 -12 -6 -7 2 -24 -5 -37 -17 -17 -15 -25 -17 -28 -8 -3 6 -15 12
-27 12 -18 0 -23 5 -21 24 4 37 -8 50 -34 36 -26 -13 -61 -5 -61 16 0 8 -8 14
-17 13 -11 0 -13 -3 -5 -6 27 -11 9 -21 -37 -20 -34 0 -48 4 -44 12 6 17 -35
26 -45 10 -6 -10 -9 -10 -20 1 -11 12 -10 14 3 14 9 0 13 5 10 10 -4 6 -3 10
2 9 26 -5 53 3 53 15 0 9 11 12 35 10 19 -1 33 1 30 5 -2 4 14 17 36 29 46 25
53 27 43 11 -4 -7 2 -9 17 -7 14 2 23 -2 22 -8 -1 -6 9 -11 23 -10 22 1 36 21
15 21 -5 0 -13 3 -17 8 -4 4 -17 7 -28 8 -21 0 -21 1 -1 8 17 7 14 10 -20 20
-22 6 -56 11 -75 11 -39 0 -61 19 -78 67 -8 24 -7 37 5 59 8 16 13 44 11 62
-3 21 0 31 7 28 18 -7 13 93 -5 104 -8 5 -10 10 -5 10 6 0 11 27 11 65 -1 36
-5 65 -9 65 -5 0 -7 12 -4 27 3 15 1 35 -4 45 -6 10 -5 19 1 23 5 3 10 16 10
29 0 12 6 31 14 41 14 20 11 45 -6 45 -6 0 -7 -7 -4 -16 4 -9 2 -13 -5 -8 -7
4 -9 22 -5 47 6 35 5 39 -12 35 -16 -5 -18 1 -16 49 1 29 8 60 14 68 12 14 7
20 -14 16 -5 -1 -6 5 -3 13 7 17 -16 69 -26 60 -3 -3 -8 4 -12 17 -6 17 -9 19
-16 8 -7 -11 -9 -10 -9 4 0 9 -5 17 -11 17 -5 0 -7 4 -4 10 3 6 -1 7 -9 4 -9
-3 -16 -1 -16 5 0 6 5 11 11 11 5 0 8 4 5 8 -3 5 -19 7 -36 4 -23 -3 -30 0
-30 12 0 10 -11 19 -29 22 -29 6 -52 34 -28 34 6 0 1 7 -11 16 -12 8 -20 19
-17 24 3 4 -3 11 -12 14 -15 6 -15 8 -3 16 12 8 12 10 -2 15 -16 6 -44 13 -62
14 -5 1 -7 4 -3 7 3 4 -4 15 -16 25 -13 11 -17 19 -9 20 6 1 16 2 21 3 5 0 13
5 18 9 4 5 4 8 -2 7 -21 -5 -46 0 -42 8 3 4 -11 8 -31 9 -21 0 -50 4 -67 8
-16 3 -78 7 -137 8 -58 1 -101 5 -95 9 7 4 2 6 -11 5 -15 -1 -21 -6 -17 -16 4
-10 2 -11 -7 -3 -12 9 -51 9 -123 -1 -27 -4 -28 -4 -10 9 14 10 15 14 4 14
-11 0 -11 2 -1 9 11 7 11 11 -2 24 -13 12 -13 16 -2 20 7 3 19 0 25 -6 10 -9
16 -7 27 8 8 11 12 25 10 31 -3 7 2 18 11 26 14 11 15 10 9 -12 -4 -14 7 -1
23 29 17 30 31 58 31 63 0 4 3 7 8 6 19 -4 39 15 35 33 -5 17 -1 20 24 18 7 0
31 83 26 90 -1 2 -9 -1 -16 -7 -14 -12 -27 -7 -27 10 0 5 5 6 10 3 16 -10 11
12 -6 30 -16 15 -16 16 1 13 10 -2 20 2 22 8 2 7 -5 10 -22 7 -14 -3 -25 -2
-25 1 0 12 23 51 34 58 7 5 7 8 1 8 -6 0 -21 -7 -33 -16 -13 -9 -22 -11 -22
-4 0 6 11 16 25 22 14 6 25 15 25 20 0 5 5 6 10 3 6 -3 10 -1 10 5 0 7 -9 14
-20 17 -11 3 -20 10 -20 15 0 5 -5 6 -12 2 -7 -4 -8 -3 -4 5 4 6 12 9 17 6 5
-4 9 5 9 19 0 13 6 31 13 38 8 7 12 19 9 26 -2 7 9 15 27 18 17 4 31 10 31 15
0 5 11 9 25 9 15 0 25 6 25 14 0 19 -17 29 -25 16 -3 -5 -15 -10 -26 -10 -10
0 -19 -4 -19 -10 0 -5 -4 -10 -9 -10 -5 0 -8 11 -7 24 0 16 5 21 10 15 14 -13
26 -11 23 4 -1 6 5 11 13 9 10 -2 12 0 5 7 -6 6 -30 13 -54 16 -25 3 -46 7
-48 9 -2 2 7 16 21 31 14 15 25 30 24 34 0 3 0 13 1 21 1 13 2 13 11 0 8 -13
10 -13 10 2 0 25 -17 31 -29 11 -10 -17 -10 -17 -11 0 0 9 5 18 10 18 6 1 13
3 18 4 4 2 17 6 28 10 15 5 20 13 17 26 -3 11 0 19 7 19 6 0 24 9 40 20 15 11
36 21 46 23 31 6 85 33 84 41 -1 4 1 10 4 14 3 3 6 0 6 -6 0 -6 16 -10 40 -9
27 1 35 4 25 10 -8 4 -20 5 -25 2 -6 -3 -10 -2 -10 4 0 13 10 19 43 25 30 5
38 -10 10 -17 -14 -4 -12 -5 5 -6 12 0 22 3 22 7 0 15 58 30 71 18 9 -8 10 -8
6 0 -4 7 0 15 9 18 8 3 12 2 9 -4 -3 -6 1 -10 10 -10 9 0 13 4 10 10 -3 5 0 7
9 4 8 -3 23 -1 33 4 15 9 13 12 -17 20 -19 6 -27 11 -17 11 9 1 34 12 55 24
20 13 43 22 50 20 6 -3 12 1 12 8 0 10 3 10 12 1 15 -15 32 -16 23 -2 -8 13 0
13 65 -5 37 -10 58 -11 65 -4 7 7 6 12 -3 18 -8 5 2 12 30 22 24 7 44 13 46
11 6 -6 29 24 24 32 -3 5 0 6 5 3 6 -4 13 -16 16 -27 4 -17 1 -20 -21 -17 -31
4 -82 -11 -82 -24 0 -10 36 -7 46 4 4 4 22 7 41 7 23 0 33 5 33 16 0 8 5 12
10 9 6 -3 10 -1 10 5 0 7 -7 10 -15 6 -8 -3 -15 -1 -15 4 0 9 15 14 33 11 5
-1 6 3 2 8 -3 6 4 15 16 22 20 10 21 9 17 -15 -5 -27 14 -37 28 -14 4 6 3 8
-2 5 -5 -3 -10 3 -10 13 0 13 4 16 12 10 6 -6 14 -7 18 -3 12 12 37 12 29 0
-4 -6 9 0 28 13 25 18 30 19 19 6 -14 -18 -13 -18 9 -11 21 6 23 5 18 -14 -3
-11 -1 -21 4 -21 5 0 9 7 9 15 0 8 5 15 10 15 6 0 10 -7 10 -15 0 -8 4 -15 9
-15 18 0 41 12 41 22 0 6 -7 5 -15 -2 -13 -11 -14 -10 -9 3 7 19 31 29 39 17
4 -6 3 -16 0 -22 -4 -7 0 -5 7 4 10 11 19 14 29 8 8 -5 22 -7 33 -4 32 10 77
11 83 1 3 -6 1 -7 -5 -3 -7 4 -12 2 -12 -3 0 -6 7 -11 16 -11 8 0 12 -5 9 -10
-4 -7 -12 -7 -25 0 -10 5 -27 10 -37 10 -17 -1 -17 -2 -1 -13 12 -9 14 -17 7
-30 -7 -11 -6 -17 1 -17 5 0 10 4 10 8 0 13 44 9 58 -5 17 -16 7 -33 -19 -33
-10 0 -19 -4 -19 -8 0 -9 11 -12 59 -15 16 -1 27 -6 24 -11 -3 -4 -19 -5 -36
-2 l-30 6 24 -21 c24 -22 24 -22 1 -16 -12 3 -20 1 -16 -4 3 -5 14 -9 26 -9
14 0 18 -5 14 -15 -4 -12 -2 -13 13 -5 14 7 21 6 24 -3 4 -9 8 -8 16 3 9 12
10 11 8 -8 -2 -12 -8 -27 -14 -33 -6 -6 -9 -18 -6 -25 6 -17 33 -19 33 -2 0 6
3 9 6 5 4 -3 3 -14 -1 -24 -14 -33 -14 -45 1 -39 13 5 18 -11 17 -51 -1 -7 3
-13 8 -13 5 0 9 -8 10 -17 0 -16 1 -15 8 1 7 19 8 19 13 -2 4 -12 17 -26 30
-31 20 -9 10 -16 -15 -12 -5 1 -7 -4 -5 -11 3 -7 11 -13 19 -13 35 0 78 -63
80 -117 0 -22 1 -22 9 -3 8 19 9 19 9 -3 1 -12 8 -25 16 -29 13 -5 13 -8 -5
-20 -17 -12 -18 -17 -8 -36 6 -12 12 -29 13 -37 1 -8 18 -33 38 -55 20 -22 37
-48 37 -58 0 -11 4 -15 12 -11 7 4 8 3 4 -5 -9 -14 -26 -5 -26 15 0 9 -5 12
-12 8 -7 -4 -10 -3 -5 1 8 9 -40 65 -56 65 -5 0 5 -11 21 -25 22 -18 29 -31
24 -47 -3 -13 -1 -19 5 -15 5 3 23 -7 38 -23 16 -17 25 -30 21 -30 -4 0 2 -10
14 -22 11 -12 20 -30 20 -39 0 -10 5 -19 12 -21 8 -3 12 -24 11 -59 -1 -45 0
-48 6 -19 7 34 7 34 15 10 5 -13 15 -30 22 -38 8 -7 14 -19 14 -25 0 -7 -4 -6
-10 3 -5 8 -10 10 -10 5 0 -6 9 -19 21 -28 11 -10 18 -25 15 -32 -3 -8 -1 -17
4 -20 6 -4 10 0 11 7 1 29 18 -30 20 -72 1 -31 3 -37 6 -17 6 36 23 25 23 -16
l1 -32 14 25 14 25 1 -24 c0 -13 3 -21 7 -17 4 4 13 -13 20 -36 15 -52 16 -61
4 -53 -6 3 -9 -3 -8 -14 0 -11 6 -17 14 -14 7 3 13 1 13 -3 0 -5 7 -43 16 -84
16 -75 25 -200 14 -200 -12 0 -26 37 -26 65 1 34 -13 55 -31 48 -8 -3 -13 4
-13 20 0 16 -7 26 -20 30 -11 3 -20 1 -20 -4 0 -5 4 -9 9 -9 5 0 11 -13 15
-30 3 -19 12 -30 23 -30 13 0 14 -3 6 -11 -9 -9 -5 -25 15 -63 15 -28 31 -54
36 -57 5 -4 6 -16 3 -28 -3 -12 1 -28 10 -36 8 -8 10 -15 4 -15 -6 0 -10 -10
-10 -22 1 -17 2 -19 6 -5 2 9 9 17 14 17 5 0 7 -11 3 -25 -4 -15 -2 -25 5 -25
6 0 11 -7 11 -15 0 -8 -5 -15 -11 -15 -5 0 -8 4 -4 9 3 6 -3 9 -14 8 -14 -1
-17 -5 -11 -12 11 -13 9 -75 -2 -75 -5 0 -8 -9 -8 -20 0 -11 -5 -20 -11 -20
-8 0 -10 -12 -6 -35 4 -23 2 -35 -6 -35 -8 0 -7 -4 2 -9 8 -5 16 -18 17 -28 5
-34 15 -88 19 -100 2 -7 -4 -17 -13 -22 -10 -6 -12 -11 -4 -11 6 0 12 -7 12
-16 0 -9 6 -14 13 -11 6 2 11 15 10 28 -2 21 -1 22 8 7 5 -10 9 -24 8 -30 -1
-7 0 -20 1 -28 4 -23 18 40 19 87 0 23 5 44 10 47 5 3 9 26 9 51 1 25 6 64 12
87 7 24 8 56 4 77 -4 20 -7 42 -7 49 1 35 4 43 12 38 5 -3 26 11 46 31 21 21
45 38 54 38 13 0 17 15 22 67 6 75 12 86 33 69 11 -9 15 -7 20 11 6 25 -2 123
-12 148 -3 8 -6 33 -6 55 -1 38 -2 40 -31 37 l-30 -2 33 14 c17 8 32 21 32 28
0 7 7 26 15 42 14 26 14 30 -1 40 -9 7 -18 33 -21 59 -6 53 14 87 50 87 12 0
40 10 65 21 31 16 42 26 39 39 -3 12 5 20 30 29 28 11 33 16 27 34 -4 12 -8
33 -10 47 -3 27 -8 47 -17 70 -14 36 -27 101 -22 110 4 6 -4 24 -16 41 -18 26
-19 33 -8 40 8 5 10 9 5 9 -6 0 -5 5 2 12 17 17 15 45 -3 52 -8 3 -15 15 -15
26 0 11 -7 23 -15 26 -8 4 -13 10 -10 14 3 4 -2 13 -10 20 -12 10 -12 14 0 26
18 18 25 18 25 -2 0 -8 -4 -12 -10 -9 -5 3 -10 2 -10 -3 0 -8 22 -22 36 -22
11 0 2 69 -11 80 -8 7 -15 17 -15 23 0 5 -11 25 -26 44 -14 18 -20 33 -14 33
6 0 8 5 3 13 -4 6 -9 32 -10 56 -3 41 -2 43 14 30 16 -13 17 -12 5 2 -7 9 -12
21 -11 25 4 24 -3 52 -17 70 -8 10 -12 13 -8 5 5 -9 3 -12 -4 -7 -7 4 -12 15
-12 25 0 9 -19 55 -42 102 -23 46 -42 89 -42 94 -8 81 -159 337 -188 319 -5
-4 3 -20 19 -37 34 -36 17 -28 -60 30 -33 25 -70 49 -83 55 -13 6 -31 22 -40
36 -12 18 -19 21 -27 13 -14 -14 -40 -15 -32 -1 3 6 1 10 -4 10 -6 0 -11 5
-11 10 0 18 48 10 115 -20 36 -16 64 -34 60 -39 -6 -10 33 -37 48 -33 4 1 7
-3 7 -9 0 -5 4 -8 10 -4 5 3 18 -3 28 -13 10 -10 23 -17 29 -15 6 2 21 -9 34
-25 22 -26 59 -49 59 -36 0 3 -7 19 -16 36 -12 24 -18 28 -25 17 -5 -8 -9 -9
-10 -4 -1 6 -2 15 -4 20 -1 6 -3 16 -3 23 -1 7 -7 10 -12 7 -8 -5 -7 -12 2
-23 11 -13 11 -14 -2 -10 -8 3 -14 15 -13 27 2 15 -16 41 -62 86 -36 35 -66
71 -66 79 -1 9 -2 21 -3 27 -1 16 -34 27 -80 28 -32 1 -36 -1 -27 -13 10 -12
4 -14 -36 -14 -26 0 -57 2 -68 5 l-20 6 20 8 c11 4 -521 8 -1183 8 -863 1
-1201 -2 -1196 -10z m-73 -56 c-7 -2 -19 -2 -25 0 -7 3 -2 5 12 5 14 0 19 -2
13 -5z m2517 -12 c0 -10 -26 -9 -36 2 -4 4 2 7 14 7 12 0 22 -4 22 -9z m-2492
-78 c-9 -11 -13 -11 -22 1 -6 8 -20 16 -31 19 -18 4 -18 5 2 6 12 0 25 -3 28
-9 10 -17 25 -11 19 8 -5 14 -4 14 4 2 8 -10 8 -18 0 -27z m1431 -422 c8 -5 9
-11 3 -15 -5 -3 -15 1 -22 9 -14 16 -3 20 19 6z m-77 -53 c-8 -8 -9 -15 -1
-25 8 -9 8 -13 1 -13 -6 0 -14 5 -17 10 -9 15 2 40 17 40 9 0 9 -3 0 -12z
m683 -8 c3 -5 1 -10 -4 -10 -6 0 -11 5 -11 10 0 6 2 10 4 10 3 0 8 -4 11 -10z
m-728 -6 c-3 -3 -12 -4 -19 -1 -8 3 -5 6 6 6 11 1 17 -2 13 -5z m1608 -33 c-6
-5 -25 10 -25 20 0 5 6 4 14 -3 8 -7 12 -15 11 -17z m-792 -77 c4 -1 11 -2 16
-3 13 -2 20 -40 9 -48 -7 -3 -8 -1 -4 5 4 7 2 12 -4 12 -6 0 -9 4 -5 9 3 5 1
13 -5 16 -6 4 -9 1 -8 -6 2 -6 -2 -13 -8 -16 -6 -2 -14 7 -16 21 -4 17 -1 23
6 18 6 -4 14 -7 19 -8z m-1366 -28 c0 -8 -5 -14 -11 -13 -6 1 -10 -3 -9 -10 2
-7 -4 -10 -12 -7 -21 8 -19 17 8 30 12 7 22 12 23 13 0 0 1 -5 1 -13z m56 -13
c-3 -7 -6 -13 -8 -13 -2 0 -5 6 -8 13 -3 8 1 14 8 14 7 0 11 -6 8 -14z m-113
-38 c-7 -8 -16 -12 -21 -9 -13 8 -1 24 18 24 13 0 13 -3 3 -15z m1445 6 c3 -5
2 -12 -3 -15 -5 -3 -9 1 -9 9 0 17 3 19 12 6z m-1520 -31 c-3 -5 -12 -10 -18
-10 -7 0 -6 4 3 10 19 12 23 12 15 0z m-35 -136 c0 -8 -19 -13 -24 -6 -3 5 1
9 9 9 8 0 15 -2 15 -3z m-45 -24 c3 -5 1 -10 -4 -10 -6 0 -11 5 -11 10 0 6 2
10 4 10 3 0 8 -4 11 -10z m1662 -15 c0 -8 -4 -12 -9 -9 -5 3 -6 10 -3 15 9 13
12 11 12 -6z m-1636 -69 c5 3 6 11 2 17 -4 7 0 6 10 -2 9 -7 17 -22 17 -32 0
-19 -17 -35 -28 -24 -3 3 0 10 8 15 15 9 13 11 -12 14 -7 0 -13 8 -14 16 0 9
1 10 3 2 3 -7 9 -10 14 -6z m-34 -58 c-3 -8 -6 -5 -6 6 -1 11 2 17 5 13 3 -3
4 -12 1 -19z m37 -18 c-6 -5 -24 21 -24 34 0 6 6 1 14 -10 8 -10 12 -21 10
-24z m-30 -18 c3 -5 -1 -9 -9 -9 -8 0 -12 4 -9 9 3 4 7 8 9 8 2 0 6 -4 9 -8z
m-37 -194 c-3 -8 -6 -5 -6 6 -1 11 2 17 5 13 3 -3 4 -12 1 -19z m27 -46 c3 -5
-1 -9 -9 -9 -8 0 -12 4 -9 9 3 4 7 8 9 8 2 0 6 -4 9 -8z m56 -93 c0 -11 -4
-18 -10 -14 -5 3 -7 12 -3 20 7 21 13 19 13 -6z m2458 -118 c11 -6 10 -11 -3
-25 -22 -21 -45 -20 -45 2 0 31 21 41 48 23z m-2363 -375 c17 -4 33 -10 37
-14 12 -12 -7 -32 -33 -37 -13 -3 -35 -7 -49 -9 -14 -3 -52 -8 -85 -11 -33 -3
-67 -8 -77 -11 -9 -3 -19 0 -23 6 -3 5 -16 10 -29 10 -36 0 -28 30 8 31 24 1
26 3 9 6 -13 2 -23 8 -23 13 0 4 9 6 20 3 12 -3 20 -2 19 3 -1 5 -1 12 0 16 1
9 183 4 226 -6z m2185 -1 c20 -24 6 -28 -15 -5 -10 11 -13 20 -8 20 6 0 16 -7
23 -15z m-3457 -10 c-3 -9 -8 -14 -10 -11 -3 3 -2 9 2 15 9 16 15 13 8 -4z
m972 -44 c-3 -5 11 -15 31 -21 25 -8 32 -15 24 -20 -7 -5 -20 -6 -28 -3 -8 3
-17 0 -22 -7 -6 -9 -14 -9 -36 4 -27 14 -27 15 -6 16 23 0 32 19 10 21 -7 0
-4 4 7 9 27 11 27 11 20 1z m2530 -2 c12 -19 -5 -23 -22 -6 -16 16 -16 17 -1
17 9 0 20 -5 23 -11z m-2223 -33 c-3 -5 2 -7 11 -3 9 3 19 2 23 -4 4 -6 13 -4
25 7 11 10 19 12 19 6 0 -7 -5 -12 -12 -12 -6 0 -3 -9 7 -20 14 -15 15 -20 4
-20 -15 0 -85 17 -109 27 -8 3 -21 5 -27 4 -7 -1 -10 4 -8 11 3 7 20 13 39 13
19 0 32 -4 28 -9z m136 -35 c-2 -9 2 -16 7 -16 28 -1 52 -45 24 -45 -5 0 -8 4
-5 8 2 4 1 14 -5 22 -7 12 -9 11 -10 -5 l0 -20 -9 20 c-5 11 -9 14 -9 7 -1
-10 -6 -10 -22 -2 -11 7 -18 14 -15 17 3 4 1 11 -4 18 -7 8 -2 12 20 12 22 0
29 -5 28 -16z m-453 -2 c3 -3 -1 -6 -7 -6 -7 0 -19 -2 -27 -4 -7 -2 -16 2 -18
9 -4 9 3 12 21 10 14 -2 28 -6 31 -9z m411 -63 c16 -11 33 -25 37 -33 4 -7 18
-13 30 -14 15 0 17 -2 7 -6 -8 -3 -22 -11 -30 -18 -8 -7 -29 -15 -46 -18 -18
-3 -44 -9 -59 -13 l-27 -7 17 27 c11 17 16 39 13 65 -4 46 8 49 58 17z m-116
-6 c12 -7 12 -13 4 -27 -17 -27 -39 -22 -42 10 -3 28 10 35 38 17z m-540 -55
c9 -11 10 -15 1 -15 -7 0 -19 7 -27 15 -13 13 -13 15 -1 15 8 0 20 -7 27 -15z
m20 -50 c17 -9 30 -17 30 -18 0 -1 -21 -3 -45 -3 -25 -1 -43 1 -41 4 3 3 1 11
-5 19 -16 19 23 18 61 -2z m655 -25 c-6 -10 56 -6 77 5 7 4 2 -2 -10 -12 -22
-18 -23 -21 -7 -36 14 -15 15 -17 1 -17 -11 0 -16 -9 -15 -27 0 -28 1 -28 11
-5 6 12 15 22 20 22 9 0 -11 -41 -26 -51 -4 -4 -18 -5 -30 -2 -20 3 -20 3 2
-6 12 -6 22 -13 22 -16 0 -4 -4 -3 -10 0 -5 3 -10 -1 -10 -9 0 -9 -9 -21 -20
-28 -11 -7 -20 -20 -20 -28 0 -13 -1 -13 -10 0 -6 10 -10 11 -10 3 0 -7 -7
-13 -15 -13 -8 0 -15 -5 -15 -10 0 -6 -8 -10 -17 -8 -11 2 -17 -2 -15 -10 2
-9 -5 -12 -20 -8 -13 3 -17 3 -10 0 23 -11 12 -24 -13 -14 -14 5 -25 6 -25 1
0 -11 -117 -3 -141 9 -24 14 -49 13 -29 0 13 -8 12 -10 -2 -10 -10 0 -18 -5
-18 -10 0 -6 -6 -5 -14 2 -8 7 -11 18 -8 23 2 6 -1 4 -9 -3 -12 -11 -12 -14 1
-22 9 -6 10 -10 3 -10 -7 0 -16 7 -21 16 -8 14 -10 13 -15 -5 -3 -12 -1 -19 3
-16 5 3 11 1 14 -4 3 -5 -3 -11 -13 -14 -20 -5 -33 11 -40 51 -1 4 -6 0 -11
-8 -6 -10 -10 -11 -10 -2 0 20 -16 14 -28 -10 -8 -17 -11 -18 -11 -7 -1 19 24
43 37 35 5 -3 17 0 26 7 15 11 12 12 -19 11 -40 -2 -41 -1 -18 17 14 12 16 12
8 0 -5 -9 -4 -12 3 -7 6 4 9 13 5 21 -3 9 1 15 8 16 8 0 25 2 39 4 24 4 24 3
-3 -9 -15 -7 -25 -15 -21 -19 4 -3 19 0 34 8 15 8 30 12 33 9 10 -10 45 16 43
31 -1 8 -11 22 -22 31 -10 8 -12 13 -4 9 10 -4 9 -1 -3 8 -16 14 -16 15 10 25
16 6 38 14 51 17 12 3 22 10 22 14 0 4 10 7 23 5 12 -1 22 -3 22 -4 0 -1 8 -3
18 -5 11 -2 17 -1 14 2 -9 9 38 48 56 47 10 -1 16 4 14 10 -3 7 19 12 69 13
41 0 72 -3 69 -7z m-657 -19 c6 0 12 -5 12 -10 0 -12 -54 -22 -58 -10 -2 5
-10 9 -18 9 -9 0 -13 4 -10 8 4 7 28 8 74 3z m762 5 c0 -3 -4 -8 -10 -11 -5
-3 -10 -1 -10 4 0 6 5 11 10 11 6 0 10 -2 10 -4z m-715 -46 c6 -1 -8 -8 -30
-16 l-40 -14 43 5 c39 5 56 -5 32 -20 -6 -4 -8 -11 -5 -16 3 -5 -1 -6 -10 -3
-10 4 -22 -1 -30 -12 -8 -11 -15 -15 -15 -11 0 4 -9 3 -19 -3 -14 -7 -22 -7
-26 0 -4 6 -3 10 2 9 18 -3 33 2 33 11 0 6 -3 9 -7 9 -5 -1 -17 -1 -28 0 -19
2 -19 2 -2 15 17 13 17 14 0 21 -14 6 -10 10 22 20 22 7 47 11 55 9 8 -1 20
-3 25 -4z m67 -78 c-7 -2 -10 -7 -7 -12 2 -4 -13 -10 -36 -14 -26 -4 -37 -10
-33 -17 4 -7 1 -10 -7 -7 -8 3 -19 -2 -26 -11 -11 -14 -12 -14 -13 2 0 27 28
51 74 63 36 10 78 6 48 -4z m158 8 c0 -5 -2 -10 -4 -10 -3 0 -8 5 -11 10 -3 6
-1 10 4 10 6 0 11 -4 11 -10z m-132 -54 c-14 -6 -35 -20 -46 -30 -12 -10 -26
-15 -33 -10 -7 4 -10 3 -6 -2 3 -6 -3 -15 -13 -22 -13 -7 -21 -8 -25 -2 -4 6
-1 9 6 8 7 -2 14 6 16 17 1 11 0 14 -3 7 -3 -6 -10 -10 -15 -6 -12 7 53 51 83
56 13 2 32 2 43 -1 18 -4 17 -6 -7 -15z m8 -41 c0 -23 -22 -53 -51 -67 -15 -7
-14 -5 4 10 14 12 20 22 13 26 -6 3 -17 -1 -25 -9 -20 -19 -33 -20 -17 0 8 9
8 15 2 15 -6 0 -21 -14 -34 -30 -20 -25 -24 -27 -24 -11 0 11 4 18 7 15 4 -2
10 0 14 5 3 6 20 20 37 33 17 12 28 17 24 10 -4 -7 -1 -12 8 -12 8 0 17 -6 19
-12 4 -10 6 -10 6 -1 1 6 -3 15 -9 18 -5 3 -10 13 -10 21 0 23 35 12 36 -11z
m494 -53 c0 -5 -10 -13 -21 -18 -21 -10 -21 -10 -3 -29 17 -16 17 -18 2 -12
-10 3 -20 2 -23 -3 -4 -6 1 -10 10 -10 10 0 13 -5 9 -12 -4 -6 -3 -8 3 -5 6 4
18 -2 28 -13 10 -11 22 -17 26 -14 5 3 9 0 9 -6 0 -6 5 -8 10 -5 6 4 10 -8 10
-29 0 -31 -3 -36 -22 -36 -17 0 -19 -3 -10 -9 11 -7 11 -11 -2 -24 -9 -8 -16
-21 -16 -27 0 -6 -4 -9 -9 -5 -6 3 -8 -6 -5 -21 3 -18 1 -23 -7 -18 -9 5 -10
2 -6 -9 3 -10 2 -17 -3 -17 -6 0 -10 -7 -10 -16 0 -8 -4 -12 -10 -9 -9 5 -15
-15 -11 -37 0 -4 -5 -5 -13 -2 -8 3 -17 0 -21 -6 -3 -6 -1 -9 6 -8 19 4 17
-34 -3 -54 -10 -10 -31 -18 -47 -18 -17 0 -32 -4 -35 -9 -3 -4 6 -6 19 -3 21
4 24 1 18 -13 -5 -14 -3 -16 8 -10 8 4 11 5 7 0 -4 -4 -2 -15 5 -24 10 -14 10
-14 -4 -3 -14 11 -18 9 -24 -10 -4 -13 -6 -27 -5 -33 1 -5 -4 -4 -12 3 -10 10
-10 16 0 32 20 33 13 37 -13 5 -29 -35 -40 -30 -20 10 17 34 21 39 -47 -52
-30 -38 -35 -58 -17 -69 7 -4 9 0 5 14 -8 23 22 40 37 20 5 -9 7 -3 3 15 -7
29 6 36 28 15 11 -11 11 -15 -3 -25 -10 -8 -12 -15 -6 -20 6 -5 11 -19 13 -33
2 -19 0 -22 -8 -10 -9 13 -14 7 -11 -12 0 -5 -3 -8 -9 -8 -5 0 -10 5 -10 10 0
6 -4 10 -10 10 -15 0 0 -29 18 -33 12 -3 9 -6 -10 -11 -29 -8 -36 -20 -18 -31
6 -3 10 -17 10 -31 0 -14 4 -23 9 -20 15 10 33 -22 27 -46 -3 -13 -3 -17 0
-10 7 16 27 16 22 0 -3 -7 2 -19 9 -26 8 -8 11 -24 8 -36 -2 -11 -2 -15 1 -8
9 20 34 -33 27 -58 -4 -14 -1 -20 10 -20 9 0 21 -8 26 -17 9 -16 10 -16 11 5
0 12 5 22 10 22 6 0 10 -13 10 -30 0 -24 -3 -28 -17 -23 -15 5 -15 3 1 -9 14
-11 17 -20 11 -34 -4 -10 -7 -25 -6 -31 1 -7 -3 -13 -9 -13 -6 0 -8 -4 -5 -10
3 -5 8 -35 10 -67 2 -32 9 -75 14 -97 12 -48 -3 -79 -34 -70 -34 9 -65 27 -65
37 0 12 -39 47 -53 47 -5 0 -7 6 -4 14 3 7 -11 31 -30 52 -20 22 -37 48 -38
59 -1 11 -3 25 -4 32 0 6 -7 18 -15 26 -20 20 -74 124 -88 168 -6 22 -15 39
-20 39 -5 0 -6 -6 -2 -12 5 -9 4 -10 -3 -3 -16 15 -26 55 -14 55 6 0 11 9 11
20 0 11 -5 20 -11 20 -7 0 -5 10 5 25 18 27 17 67 -3 103 -14 26 -14 45 -1 37
6 -3 10 -2 10 4 0 5 -4 13 -10 16 -5 3 -10 17 -10 31 0 14 -4 23 -9 19 -5 -3
-12 -1 -15 4 -9 14 4 41 20 41 8 0 14 4 14 9 0 5 -12 7 -27 5 -21 -4 -25 -2
-17 6 15 16 5 63 -12 56 -9 -4 -14 2 -14 15 0 11 5 17 10 14 6 -3 10 1 10 9 0
10 -6 13 -15 10 -22 -9 -19 23 4 35 21 12 34 48 20 57 -5 3 -9 -7 -10 -23 0
-15 -3 -22 -6 -15 -2 6 -9 9 -15 6 -5 -3 -3 7 5 22 13 27 15 85 4 145 -3 17
-1 26 8 26 7 0 10 -8 7 -19 -2 -10 1 -18 8 -18 6 0 10 6 7 13 -2 6 0 20 5 30
8 15 6 17 -18 11 -19 -5 -25 -4 -20 5 4 6 19 11 34 12 15 0 21 3 15 6 -7 2
-13 16 -13 30 0 23 -2 24 -17 12 -16 -13 -17 -12 -5 3 8 10 20 14 29 11 12 -5
14 -3 8 8 -8 12 -6 12 8 1 9 -8 21 -11 26 -8 5 4 13 1 17 -5 5 -8 3 -9 -6 -4
-9 6 -11 4 -5 -4 6 -10 3 -11 -14 -2 -17 10 -20 9 -15 -4 3 -8 10 -12 15 -9 5
3 9 1 9 -5 0 -5 -6 -11 -12 -14 -7 -2 -10 -8 -6 -12 9 -10 40 14 33 25 -3 5
-1 11 4 15 5 3 8 15 6 26 -3 13 0 19 8 16 7 -2 23 0 37 5 l24 9 -19 -23 c-11
-13 -13 -17 -5 -10 8 6 31 12 52 12 29 0 38 4 38 18 0 9 4 13 8 7 4 -5 28 -10
55 -11 41 0 47 2 48 20 0 12 3 15 6 8 2 -6 9 -9 14 -6 6 3 16 0 24 -6 12 -10
15 -10 15 0 0 8 3 11 6 8 3 -4 17 0 32 8 32 16 32 16 32 6z m-491 -74 c-3 -25
1 -39 10 -33 5 3 12 1 15 -4 4 -5 -1 -8 -10 -7 -20 3 -34 25 -27 43 6 16 14
17 12 1z m-559 -109 c0 -5 -4 -9 -8 -9 -5 0 -9 7 -9 15 0 8 4 12 9 9 4 -3 8
-9 8 -15z m1690 -538 c0 -17 -5 -33 -12 -37 -7 -4 -8 -3 -4 4 4 7 3 12 -2 12
-5 0 -9 11 -9 25 0 15 5 25 13 25 9 0 14 -11 14 -29z m-47 -24 c-5 -8 -8 -7
-11 1 -2 7 -9 9 -14 6 -7 -4 -8 -2 -4 4 4 6 13 9 21 6 8 -4 12 -11 8 -17z
m1264 1 c-3 -8 -6 -5 -6 6 -1 11 2 17 5 13 3 -3 4 -12 1 -19z m-1549 -96 c16
-21 15 -87 -2 -101 -21 -17 -41 -4 -64 43 -24 48 -28 92 -9 99 14 5 56 -18 75
-41z m298 -276 c-13 -36 -26 -39 -26 -4 0 11 -7 18 -20 18 -17 0 -16 4 12 31
30 28 33 29 39 11 4 -11 2 -36 -5 -56z m319 54 c3 -5 1 -10 -4 -10 -6 0 -11 5
-11 10 0 6 2 10 4 10 3 0 8 -4 11 -10z m-955 -84 c0 -17 -14 -29 -23 -20 -8 8
3 34 14 34 5 0 9 -6 9 -14z m487 -50 c-5 -16 -24 -18 -30 -4 -3 9 3 14 14 14
11 0 18 -5 16 -10z m1353 -37 c0 -5 -6 -9 -14 -9 -8 0 -14 9 -13 19 1 15 4 17
14 9 7 -6 13 -14 13 -19z m-1386 -37 c2 -4 -5 -9 -17 -9 -17 -2 -19 0 -7 7 18
12 18 12 24 2z m151 -12 c-4 -6 -2 -17 4 -24 8 -10 8 -16 -2 -24 -11 -9 -13
-5 -11 21 2 36 2 37 10 37 3 0 2 -5 -1 -10z m-213 -30 c11 0 15 -5 12 -15 -9
-24 -30 -18 -43 13 -10 22 -10 25 0 15 7 -7 21 -13 31 -13z m93 9 c13 21 31
-6 34 -50 2 -37 0 -41 -13 -29 -12 9 -16 9 -16 1 0 -7 -5 -9 -10 -6 -6 4 -7
11 -4 17 4 6 2 8 -4 4 -6 -3 -18 1 -27 11 -15 15 -15 17 -1 25 9 5 16 17 16
26 0 13 2 14 9 3 6 -9 10 -10 16 -2z m84 -26 c11 -23 10 -25 -3 -13 -12 9 -16
9 -16 1 0 -8 -4 -8 -14 1 -9 8 -10 15 -4 19 6 4 8 12 4 18 -4 6 -1 9 7 5 8 -3
20 -17 26 -31z m97 16 c9 -15 -23 -10 -35 5 -10 12 -8 13 9 9 11 -3 23 -9 26
-14z m34 13 c0 -5 -7 -17 -15 -28 -14 -18 -14 -17 -4 9 12 27 19 34 19 19z
m20 -26 c0 -3 -4 -8 -10 -11 -5 -3 -10 -1 -10 4 0 6 5 11 10 11 6 0 10 -2 10
-4z m-291 -48 c1 -5 -4 -8 -10 -8 -5 0 -8 4 -5 8 3 5 -1 9 -9 9 -8 0 -12 -4
-9 -9 3 -4 2 -13 -1 -19 -8 -12 -45 23 -45 43 0 10 2 10 8 1 9 -15 52 -6 53
11 0 11 17 -21 18 -36z m224 17 c-1 -5 -7 -11 -14 -14 -6 -2 -9 1 -5 7 3 6 -2
13 -11 16 -11 3 -8 4 7 3 14 -1 24 -6 23 -12z m-395 -18 c2 -9 -2 -17 -8 -17
-6 0 -8 5 -4 11 3 6 0 16 -7 21 -12 8 -11 9 1 5 8 -2 16 -11 18 -20z m257 -47
c-2 -24 -15 -39 -15 -17 0 8 -5 17 -12 19 -6 2 -8 9 -4 16 10 17 33 4 31 -18z
m-15 -74 c0 -2 -8 -10 -17 -17 -16 -13 -17 -12 -4 4 13 16 21 21 21 13z m37
-59 c7 -4 10 -14 7 -22 -4 -8 -10 -13 -15 -10 -4 3 -6 12 -2 20 4 11 1 13 -11
9 -9 -3 -16 -2 -16 4 0 11 18 11 37 -1z m13 -198 c0 -4 -8 -9 -18 -11 -16 -5
-17 -2 -8 18 10 20 25 16 26 -7z m363 10 c5 -3 0 -9 -11 -11 -15 -4 -18 -1
-14 14 2 10 7 15 11 11 3 -4 10 -11 14 -14z m-1334 -121 c-1 -47 -22 -111 -38
-116 -11 -4 -13 5 -8 44 10 83 48 141 46 72z m1291 -138 c0 -5 -5 -10 -11 -10
-5 0 -7 5 -4 10 3 6 8 10 11 10 2 0 4 -4 4 -10z"/>
<path d="M2135 2969 c-4 -6 -5 -12 -2 -15 2 -3 7 2 10 11 7 17 1 20 -8 4z"/>
<path d="M2150 2730 c-8 -5 -19 -6 -25 -3 -5 4 -2 -3 8 -14 9 -11 14 -23 10
-27 -4 -4 0 -4 10 0 17 6 17 7 0 21 -17 13 -16 14 5 8 12 -4 22 -2 22 4 0 15
-14 21 -30 11z"/>
<path d="M1810 2596 c0 -8 51 -13 56 -5 3 5 -9 9 -25 9 -17 0 -31 -2 -31 -4z"/>
<path d="M1816 2561 c-17 -7 -17 -8 -2 -24 20 -20 33 -23 17 -4 -8 10 -7 17 1
25 13 13 11 14 -16 3z"/>
<path d="M1743 2545 c0 -7 6 -11 14 -8 7 3 13 6 13 8 0 2 -6 5 -13 8 -8 3 -14
-1 -14 -8z"/>
<path d="M1696 2493 c-6 -14 -5 -15 5 -6 7 7 10 15 7 18 -3 3 -9 -2 -12 -12z"/>
<path d="M2005 2460 c-3 -5 -2 -10 4 -10 5 0 13 5 16 10 3 6 2 10 -4 10 -5 0
-13 -4 -16 -10z"/>
<path d="M1690 2309 c0 -5 5 -7 10 -4 6 3 10 8 10 11 0 2 -4 4 -10 4 -5 0 -10
-5 -10 -11z"/>
<path d="M1686 2255 c4 -8 8 -15 10 -15 2 0 4 7 4 15 0 8 -4 15 -10 15 -5 0
-7 -7 -4 -15z"/>
<path d="M1675 1990 c4 -6 11 -8 16 -5 14 9 11 15 -7 15 -8 0 -12 -5 -9 -10z"/>
<path d="M1745 1961 c-3 -5 -1 -12 5 -16 5 -3 10 1 10 9 0 18 -6 21 -15 7z"/>
<path d="M1708 1895 c2 -14 6 -25 8 -25 2 0 4 11 4 25 0 14 -4 25 -9 25 -4 0
-6 -11 -3 -25z"/>
<path d="M4075 5034 c17 -9 59 -44 95 -78 l65 -61 -60 63 c-55 58 -101 93
-122 92 -4 -1 6 -8 22 -16z"/>
<path d="M4258 4846 c15 -24 29 -42 31 -41 5 6 -42 85 -50 85 -5 0 4 -20 19
-44z"/>
<path d="M4207 4785 c6 -18 5 -18 -10 -6 -9 7 -17 10 -17 7 0 -11 27 -36 39
-36 5 0 13 -5 17 -12 4 -7 3 -8 -4 -4 -18 11 -15 1 22 -72 18 -37 43 -105 55
-151 11 -46 24 -87 27 -90 7 -7 -4 60 -17 104 -30 107 -54 175 -60 175 -3 0
-9 12 -13 28 -3 15 -15 38 -26 52 -16 20 -19 21 -13 5z"/>
<path d="M4310 4730 c0 -8 5 -22 10 -30 9 -13 10 -13 10 0 0 8 -5 22 -10 30
-9 13 -10 13 -10 0z"/>
<path d="M4331 4645 c1 -11 5 -31 9 -45 8 -24 8 -24 9 5 0 17 -4 37 -9 45 -8
12 -10 11 -9 -5z"/>
<path d="M3070 4506 c0 -2 8 -10 18 -17 15 -13 16 -12 3 4 -13 16 -21 21 -21
13z"/>
<path d="M3140 4400 c0 -5 5 -10 11 -10 5 0 7 5 4 10 -3 6 -8 10 -11 10 -2 0
-4 -4 -4 -10z"/>
<path d="M3137 4373 c-12 -11 -8 -23 8 -23 8 0 15 7 15 15 0 16 -12 20 -23 8z"/>
<path d="M2316 4342 c-3 -5 1 -9 9 -9 8 0 15 4 15 9 0 4 -4 8 -9 8 -6 0 -12
-4 -15 -8z"/>
<path d="M3108 4313 c7 -3 16 -2 19 1 4 3 -2 6 -13 5 -11 0 -14 -3 -6 -6z"/>
<path d="M2085 4260 c-3 -5 -1 -10 4 -10 6 0 11 5 11 10 0 6 -2 10 -4 10 -3 0
-8 -4 -11 -10z"/>
<path d="M2010 4154 c0 -8 5 -12 10 -9 6 4 8 11 5 16 -9 14 -15 11 -15 -7z"/>
<path d="M1981 4147 c-10 -13 -9 -20 4 -41 9 -14 14 -30 10 -36 -3 -5 -1 -10
4 -10 16 0 13 22 -4 47 -11 15 -12 22 -3 25 6 2 9 10 7 17 -4 10 -8 10 -18 -2z"/>
<path d="M3390 4155 c0 -18 22 -55 30 -50 6 3 7 -1 4 -9 -4 -10 -1 -16 8 -16
7 0 19 -9 26 -20 7 -11 18 -20 25 -19 9 0 9 2 0 5 -7 3 -9 12 -6 20 3 7 -2 17
-11 20 -9 3 -13 10 -10 15 3 5 10 6 16 3 6 -4 9 -1 6 7 -3 8 -12 13 -22 11 -9
-2 -16 4 -16 13 0 8 -3 15 -7 16 -5 0 -16 2 -25 4 -10 2 -18 2 -18 0z"/>
<path d="M1931 4088 c-22 -27 -22 -30 -5 -26 10 2 19 8 19 13 0 6 4 16 9 23
16 26 1 19 -23 -10z"/>
<path d="M2065 4060 c3 -5 8 -10 11 -10 2 0 4 5 4 10 0 6 -5 10 -11 10 -5 0
-7 -4 -4 -10z"/>
<path d="M3436 4042 c-3 -5 4 -18 17 -28 21 -19 21 -19 7 0 -8 11 -13 21 -12
23 2 3 1 7 -1 9 -3 3 -8 1 -11 -4z"/>
<path d="M3505 4040 c-3 -6 1 -7 9 -4 18 7 21 14 7 14 -6 0 -13 -4 -16 -10z"/>
<path d="M3551 4004 c0 -11 3 -14 6 -6 3 7 2 16 -1 19 -3 4 -6 -2 -5 -13z"/>
<path d="M3585 3920 c-3 -5 -1 -10 4 -10 6 0 11 5 11 10 0 6 -2 10 -4 10 -3 0
-8 -4 -11 -10z"/>
<path d="M3366 3463 c-15 -4 -16 -7 -5 -14 10 -6 8 -9 -11 -10 -33 -2 -41 -4
-64 -14 -12 -5 -21 -4 -26 5 -6 10 -8 10 -12 0 -3 -9 -38 -13 -118 -15 -63 -1
-122 -4 -130 -6 -10 -3 -14 3 -13 15 1 13 -2 15 -10 7 -7 -7 -7 -15 2 -25 7
-8 10 -20 6 -26 -9 -15 -28 -12 -22 3 3 7 -3 13 -13 14 -15 1 -18 -5 -16 -32
2 -19 -1 -32 -5 -29 -13 8 -11 -10 2 -23 7 -7 8 -17 2 -28 -9 -16 -11 -16 -16
-1 -4 9 -1 16 6 16 7 1 5 6 -5 13 -9 7 -16 20 -16 28 2 31 -2 52 -9 45 -4 -4
-7 -24 -6 -44 1 -20 -1 -28 -4 -17 -3 11 -13 25 -22 32 -10 8 -12 12 -3 13 6
0 12 4 12 10 0 13 -33 0 -43 -17 -4 -7 -20 -13 -35 -14 -15 0 -21 -3 -14 -6 6
-2 12 -9 12 -14 0 -6 -4 -7 -10 -4 -5 3 -10 1 -10 -4 0 -6 -8 -11 -17 -12 -12
0 -8 -4 10 -11 15 -5 27 -14 27 -19 0 -6 8 -9 17 -7 12 2 19 -6 24 -29 3 -18
2 -30 -2 -27 -5 3 -9 -2 -9 -10 0 -10 6 -13 16 -9 13 5 15 1 10 -18 -6 -20 -5
-21 4 -6 6 9 8 22 5 27 -4 6 4 6 21 0 22 -9 25 -8 16 2 -8 10 -5 13 13 13 18
0 21 -3 12 -13 -8 -10 -7 -12 4 -10 8 2 17 7 20 12 4 5 21 10 39 11 18 2 36 9
41 16 5 8 9 9 9 4 0 -6 -6 -17 -12 -24 -11 -10 -8 -10 15 -2 15 6 27 7 27 3 0
-4 6 0 13 8 20 26 100 66 129 65 15 0 26 4 25 10 -1 5 13 9 30 9 22 -1 31 2
26 10 -4 6 1 5 10 -3 9 -7 14 -17 12 -22 -9 -14 50 1 61 16 12 17 50 20 58 6
3 -5 -1 -11 -9 -15 -16 -6 -21 -26 -7 -26 17 0 52 42 45 53 -4 8 -1 7 9 -1 9
-7 34 -13 56 -14 31 0 41 -5 45 -20 3 -11 10 -17 16 -13 6 3 9 11 6 16 -9 14
16 10 45 -6 25 -14 25 -14 3 -15 -13 0 -23 -3 -23 -8 0 -12 99 -5 116 9 12 10
15 10 12 -2 -2 -8 -7 -17 -13 -21 -5 -4 5 -8 23 -8 17 0 32 -4 32 -10 0 -5 -8
-7 -17 -3 -12 4 -15 3 -8 -4 6 -6 26 -13 45 -17 33 -5 34 -5 15 10 -15 11 -17
17 -7 23 10 6 10 10 -2 20 -8 7 -12 20 -9 29 3 11 2 13 -4 5 -6 -8 -14 -6 -32
8 l-23 19 23 1 c21 1 21 2 4 6 -25 6 -38 25 -23 34 5 4 -6 8 -25 11 -29 3 -34
1 -25 -9 5 -7 15 -10 22 -6 7 4 7 1 -1 -7 -10 -11 -17 -10 -37 4 -15 9 -26 21
-26 27 0 6 -4 8 -9 5 -5 -3 -28 5 -51 18 -24 13 -50 22 -58 18 -10 -3 -13 -1
-8 6 4 8 2 10 -8 6 -8 -3 -28 1 -44 10 -16 8 -32 12 -36 9 -3 -4 -6 -1 -6 6 0
8 -5 9 -19 1 -25 -13 -34 -13 -26 0 3 6 5 9 3 9 -2 -1 -12 -4 -22 -6z m-31
-162 c-3 -6 -11 -8 -17 -5 -6 4 -5 9 3 15 16 10 23 4 14 -10z m-455 -25 c0 -3
-4 -8 -10 -11 -5 -3 -10 -1 -10 4 0 6 5 11 10 11 6 0 10 -2 10 -4z m807 -2
c-3 -3 -12 -4 -19 -1 -8 3 -5 6 6 6 11 1 17 -2 13 -5z m-825 -28 c6 4 9 1 6
-6 -8 -24 -28 -23 -27 2 0 13 3 17 6 10 2 -6 9 -9 15 -6z"/>
<path d="M3656 3422 c-7 -11 42 -38 51 -29 3 4 -1 7 -10 7 -10 0 -14 5 -11 15
7 16 -21 22 -30 7z"/>
<path d="M3778 3375 c-3 -14 -1 -25 3 -25 5 0 9 11 9 25 0 14 -2 25 -4 25 -2
0 -6 -11 -8 -25z"/>
<path d="M3460 3300 c0 -6 7 -10 15 -10 8 0 15 2 15 4 0 2 -7 6 -15 10 -8 3
-15 1 -15 -4z"/>
<path d="M2740 3265 c13 -14 19 -25 13 -25 -6 0 -13 6 -16 13 -3 8 -8 9 -13 2
-5 -5 -7 -9 -5 -8 2 2 10 -2 17 -8 8 -6 21 -8 30 -5 14 5 15 4 4 -9 -7 -8 -17
-12 -22 -9 -6 4 -5 -3 1 -14 14 -27 28 -35 36 -22 4 6 1 9 -6 8 -6 -2 -14 3
-17 11 -3 8 0 11 7 7 6 -4 11 -1 11 6 1 9 5 7 14 -5 12 -16 14 -15 20 14 8 43
8 51 -4 44 -6 -4 -8 -10 -5 -15 3 -5 0 -12 -7 -16 -7 -4 -10 -3 -5 1 11 12
-33 55 -56 55 -20 0 -19 -1 3 -25z"/>
<path d="M3270 3280 c0 -5 5 -10 11 -10 5 0 7 5 4 10 -3 6 -8 10 -11 10 -2 0
-4 -4 -4 -10z"/>
<path d="M3851 3274 c0 -11 3 -14 6 -6 3 7 2 16 -1 19 -3 4 -6 -2 -5 -13z"/>
<path d="M3488 3233 c6 -2 18 -2 25 0 6 3 1 5 -13 5 -14 0 -19 -2 -12 -5z"/>
<path d="M2270 3226 c0 -2 7 -7 16 -10 8 -3 12 -2 9 4 -6 10 -25 14 -25 6z"/>
<path d="M3632 3225 c3 -3 16 -8 28 -10 12 -2 20 -1 16 2 -4 4 -16 8 -28 10
-12 2 -19 1 -16 -2z"/>
<path d="M2248 3207 c12 -7 19 -17 15 -22 -4 -4 -2 -5 5 -1 17 10 -3 36 -27
36 -12 -1 -10 -4 7 -13z"/>
<path d="M3700 3205 c-11 -13 -7 -15 31 -14 24 1 35 4 24 6 -11 3 -25 9 -31
14 -7 6 -16 4 -24 -6z"/>
<path d="M3947 3190 c-3 -11 -1 -20 4 -20 5 0 9 9 9 20 0 11 -2 20 -4 20 -2 0
-6 -9 -9 -20z"/>
<path d="M3025 3190 c-3 -5 -2 -10 4 -10 5 0 13 5 16 10 3 6 2 10 -4 10 -5 0
-13 -4 -16 -10z"/>
<path d="M3210 3177 c-3 -3 -41 -8 -84 -11 -89 -7 -146 -23 -146 -43 0 -7 -4
-13 -9 -13 -18 0 -72 -62 -67 -76 3 -9 1 -12 -4 -9 -6 3 -13 -2 -17 -12 -4
-10 -11 -21 -17 -25 -8 -5 -7 -8 1 -8 6 0 10 -11 8 -25 -2 -27 13 -33 34 -12
12 10 13 8 6 -8 -4 -11 -9 -28 -12 -37 -3 -9 -12 -19 -22 -21 -9 -3 -4 -5 11
-6 36 -1 59 -11 52 -22 -3 -5 -1 -9 5 -9 6 0 8 -7 5 -15 -4 -8 -11 -12 -18 -9
-6 3 -2 -2 8 -10 15 -12 16 -16 5 -16 -12 0 -12 -2 0 -9 8 -5 21 -7 29 -3 10
3 13 1 8 -6 -4 -7 -2 -12 4 -12 6 0 8 -4 5 -10 -3 -6 1 -7 10 -4 10 4 22 -1
30 -12 8 -11 14 -14 15 -6 0 14 40 56 40 42 0 -5 7 -10 15 -10 8 0 15 4 15 10
0 5 7 7 15 4 11 -4 13 -2 9 9 -4 12 0 15 18 11 13 -2 17 -2 10 2 -9 4 -2 15
20 35 35 30 58 37 58 17 0 -7 7 -2 16 10 12 17 19 20 34 12 27 -14 34 -12 20
5 -15 18 -14 18 27 6 20 -6 35 -6 39 0 3 5 11 6 17 2 7 -4 5 1 -2 11 -13 16
-13 18 0 16 38 -6 58 0 52 15 -4 13 0 15 21 11 14 -3 26 -1 26 3 0 8 74 34
102 35 27 1 34 16 9 23 -12 3 -18 9 -12 12 6 4 -2 20 -20 40 -16 19 -29 36
-29 40 0 13 -64 43 -68 32 -2 -6 -8 -8 -13 -5 -6 3 -3 11 7 18 15 11 11 14
-31 25 -52 13 -227 26 -235 18z m126 -29 c4 -5 11 -5 18 1 14 12 58 3 50 -10
-3 -5 2 -6 11 -3 10 4 27 -4 44 -21 17 -15 30 -22 33 -15 2 7 12 4 27 -9 22
-19 22 -20 3 -18 -12 0 -19 4 -17 8 3 3 -9 6 -25 7 -43 1 -100 24 -100 40 0 9
-5 10 -17 3 -11 -6 -24 -6 -35 0 -10 5 -29 7 -43 5 -26 -5 -32 3 -14 21 11 11
56 6 65 -9z m62 -91 c6 -5 12 -7 12 -3 0 4 14 -1 30 -9 26 -13 29 -19 20 -35
-6 -11 -33 -31 -60 -45 -55 -28 -67 -31 -52 -12 13 15 19 98 8 115 -8 13 20 6
42 -11z m-110 -47 c-2 -8 -13 -16 -26 -18 -17 -3 -22 1 -22 21 0 13 3 26 6 30
10 10 45 -17 42 -33z m-195 -8 c-2 -14 1 -21 7 -17 6 3 10 -2 10 -11 0 -10 7
-26 17 -36 15 -17 14 -18 -39 -18 -40 0 -63 5 -79 19 -22 17 -22 19 -6 35 9
10 17 14 17 10 0 -5 10 4 22 19 26 33 54 32 51 -1z"/>
<path d="M2915 3110 c-3 -5 -1 -10 4 -10 6 0 11 5 11 10 0 6 -2 10 -4 10 -3 0
-8 -4 -11 -10z"/>
<path d="M3898 3033 c7 -3 16 -2 19 1 4 3 -2 6 -13 5 -11 0 -14 -3 -6 -6z"/>
<path d="M3708 2973 c7 -3 16 -2 19 1 4 3 -2 6 -13 5 -11 0 -14 -3 -6 -6z"/>
<path d="M4256 2768 c3 -24 1 -63 -4 -88 -7 -37 -5 -50 11 -75 18 -28 19 -28
13 -5 -3 14 -6 67 -6 118 0 53 -4 92 -10 92 -6 0 -7 -18 -4 -42z"/>
<path d="M3067 2725 c3 -8 9 -12 14 -9 12 7 11 11 -5 17 -10 4 -13 1 -9 -8z"/>
<path d="M3516 2709 c-15 -9 -16 -13 -5 -20 15 -9 -2 -13 -46 -10 -11 1 -27
-3 -35 -9 -13 -9 -13 -12 3 -24 18 -14 18 -16 1 -40 -9 -15 -14 -29 -10 -33 3
-3 6 -1 6 5 0 6 8 9 18 6 14 -5 15 -4 2 5 -14 10 -8 15 13 12 4 -1 10 6 13 14
3 8 10 13 14 10 5 -3 11 -1 15 5 3 5 11 10 17 10 6 0 3 -10 -8 -22 -10 -13
-12 -17 -4 -10 8 6 21 12 30 12 8 0 26 10 40 21 14 11 18 17 10 13 -12 -6 -13
-5 -3 8 7 8 9 18 5 23 -4 4 3 4 16 1 14 -5 22 -3 22 4 0 6 -4 8 -10 5 -5 -3
-10 -1 -10 5 0 7 -7 9 -16 6 -8 -3 -12 -2 -9 4 3 6 1 10 -4 10 -6 0 -11 -9
-11 -20 0 -13 -6 -20 -17 -19 -11 0 -13 3 -5 6 6 2 12 9 12 14 0 4 -7 5 -17 2
-11 -4 -14 -3 -9 5 9 14 6 15 -18 1z m54 -60 c0 -5 -4 -9 -8 -9 -5 0 -9 7 -9
15 0 8 4 12 9 9 4 -3 8 -9 8 -15z"/>
<path d="M3691 2694 c0 -11 3 -14 6 -6 3 7 2 16 -1 19 -3 4 -6 -2 -5 -13z"/>
<path d="M3643 2693 c4 -3 1 -13 -6 -22 -11 -14 -10 -14 5 -2 16 12 16 31 1
31 -4 0 -3 -3 0 -7z"/>
<path d="M2860 2675 c0 -8 4 -15 10 -15 5 0 7 7 4 15 -4 8 -8 15 -10 15 -2 0
-4 -7 -4 -15z"/>
<path d="M3665 2669 c-4 -6 -5 -12 -2 -15 2 -3 7 2 10 11 7 17 1 20 -8 4z"/>
<path d="M3611 2654 c0 -11 3 -14 6 -6 3 7 2 16 -1 19 -3 4 -6 -2 -5 -13z"/>
<path d="M3335 2633 c-33 -9 -63 -20 -67 -26 -9 -14 0 -29 13 -21 5 3 7 10 4
15 -4 5 -1 9 4 9 6 0 11 -10 11 -22 0 -19 2 -20 13 -6 17 22 48 31 40 13 -3
-8 -8 -13 -12 -10 -4 2 -8 -1 -8 -8 0 -7 15 -12 38 -12 36 0 46 11 24 27 -6 5
-4 8 6 8 26 0 40 21 24 36 -16 17 -14 17 -90 -3z"/>
<path d="M4186 2424 c-15 -14 -26 -27 -24 -29 2 -3 17 9 33 25 35 36 30 39 -9
4z"/>
<path d="M3010 2401 c0 -5 -3 -16 -6 -24 -3 -9 3 -16 15 -20 12 -3 21 -1 21 5
0 5 5 6 10 3 6 -3 10 0 10 8 0 7 -11 19 -25 25 -14 6 -25 8 -25 3z"/>
<path d="M3070 2331 c0 -11 5 -23 11 -26 6 -4 8 -21 4 -38 -4 -25 -1 -22 13
13 14 35 15 46 5 48 -7 2 -13 8 -13 13 0 5 -4 9 -10 9 -5 0 -10 -9 -10 -19z"/>
<path d="M3995 2261 c-3 -5 -1 -12 5 -16 5 -3 10 1 10 9 0 18 -6 21 -15 7z"/>
<path d="M4030 2210 c0 -5 6 -10 13 -10 9 0 11 -12 9 -41 -3 -29 -1 -40 7 -35
17 11 14 83 -5 90 -21 8 -24 8 -24 -4z"/>
<path d="M2987 2140 c-66 -12 -65 -24 3 -33 25 -3 39 -3 32 0 -10 4 -9 8 4 17
23 17 7 24 -39 16z"/>
<path d="M3860 2114 c0 -8 5 -12 10 -9 6 3 10 10 10 16 0 5 -4 9 -10 9 -5 0
-10 -7 -10 -16z"/>
<path d="M4001 2104 c0 -11 3 -14 6 -6 3 7 2 16 -1 19 -3 4 -6 -2 -5 -13z"/>
<path d="M3287 2103 c-11 -10 -8 -35 3 -28 6 4 8 10 5 15 -3 4 1 11 7 13 7 3
8 6 2 6 -6 1 -14 -2 -17 -6z"/>
<path d="M3322 2093 c-5 -10 -7 -24 -5 -30 3 -7 -2 -13 -11 -13 -8 0 -17 -4
-20 -8 -2 -4 4 -8 15 -8 21 0 20 0 24 35 1 13 9 27 16 32 10 6 10 9 2 9 -7 0
-16 -8 -21 -17z"/>
<path d="M4052 2095 c-1 -5 -9 -31 -17 -57 -10 -35 -11 -47 -2 -45 7 1 13 -11
14 -28 1 -18 -1 -22 -4 -11 -4 17 -7 15 -18 -11 -8 -18 -11 -42 -8 -54 5 -19
3 -21 -14 -17 -16 4 -19 2 -16 -13 12 -44 51 -2 41 44 -2 9 5 22 15 29 15 11
17 25 14 93 -1 44 -4 76 -5 70z"/>
<path d="M3065 2072 c-21 -18 -33 -48 -15 -37 6 4 10 -5 10 -22 1 -27 1 -27
15 -9 10 13 11 22 5 26 -7 5 -8 15 -1 33 12 32 12 32 -14 9z"/>
<path d="M2970 2060 c0 -5 5 -10 11 -10 5 0 7 5 4 10 -3 6 -8 10 -11 10 -2 0
-4 -4 -4 -10z"/>
<path d="M3113 2055 c0 -8 4 -12 9 -9 4 3 8 9 8 15 0 5 -4 9 -8 9 -5 0 -9 -7
-9 -15z"/>
<path d="M2967 2025 c-4 -8 -2 -17 2 -20 5 -2 11 4 14 15 6 23 -8 27 -16 5z"/>
<path d="M3348 2033 c6 -2 10 -8 7 -13 -3 -4 2 -11 10 -14 13 -4 14 -2 5 14
-6 11 -16 20 -23 19 -9 0 -9 -2 1 -6z"/>
<path d="M3600 2014 c0 -17 27 -37 34 -25 4 5 2 12 -4 16 -5 3 -10 3 -10 -2 0
-4 -5 -1 -10 7 -5 8 -10 10 -10 4z"/>
<path d="M2835 1960 c3 -5 8 -10 11 -10 2 0 4 5 4 10 0 6 -5 10 -11 10 -5 0
-7 -4 -4 -10z"/>
<path d="M3360 1959 c0 -5 5 -7 10 -4 6 3 10 8 10 11 0 2 -4 4 -10 4 -5 0 -10
-5 -10 -11z"/>
<path d="M2924 1825 c-3 -8 -4 -20 -2 -27 3 -7 7 -1 10 15 6 29 1 36 -8 12z"/>
<path d="M3406 1722 c-3 -5 1 -9 9 -9 8 0 12 4 9 9 -3 4 -7 8 -9 8 -2 0 -6 -4
-9 -8z"/>
<path d="M2751 1624 c0 -11 3 -14 6 -6 3 7 2 16 -1 19 -3 4 -6 -2 -5 -13z"/>
<path d="M3437 1513 c-3 -5 -2 -15 2 -22 7 -10 10 -10 16 -1 4 6 3 16 -3 22
-5 5 -12 6 -15 1z"/>
<path d="M2803 1381 c3 -49 12 -59 27 -32 8 17 8 21 -4 21 -9 0 -12 7 -9 19 3
10 0 22 -6 25 -7 4 -9 -7 -8 -33z"/>
<path d="M2846 1375 c4 -8 8 -15 10 -15 2 0 4 7 4 15 0 8 -4 15 -10 15 -5 0
-7 -7 -4 -15z"/>
<path d="M2820 1239 c0 -5 5 -7 10 -4 6 3 10 8 10 11 0 2 -4 4 -10 4 -5 0 -10
-5 -10 -11z"/>
<path d="M2827 1209 c7 -7 15 -10 18 -7 3 3 -2 9 -12 12 -14 6 -15 5 -6 -5z"/>
<path d="M2880 1175 c0 -8 4 -15 8 -15 5 0 9 7 9 15 0 8 -4 15 -9 15 -4 0 -8
-7 -8 -15z"/>
<path d="M3293 1173 c-15 -5 -17 -23 -4 -23 5 0 11 7 15 15 3 8 4 15 3 14 -1
0 -8 -3 -14 -6z"/>
<path d="M2834 1147 c-3 -10 -3 -29 1 -45 6 -26 6 -26 -10 -7 -16 19 -16 19
-5 -3 11 -22 13 -23 30 -7 19 17 19 50 1 68 -7 7 -13 5 -17 -6z"/>
<path d="M2710 1050 c0 -5 5 -10 11 -10 5 0 7 5 4 10 -3 6 -8 10 -11 10 -2 0
-4 -4 -4 -10z"/>
<path d="M2800 1010 c6 -11 18 -19 28 -19 16 1 15 2 -1 6 -9 2 -15 8 -12 13 3
4 -2 11 -10 14 -13 4 -14 2 -5 -14z"/>
<path d="M3300 1020 c-11 -7 -11 -10 -2 -10 7 0 11 -4 7 -9 -3 -5 -2 -12 3
-15 4 -2 8 6 8 20 0 13 0 24 0 24 -1 0 -8 -5 -16 -10z"/>
<path d="M2980 994 c0 -8 5 -12 10 -9 6 3 10 10 10 16 0 5 -4 9 -10 9 -5 0
-10 -7 -10 -16z"/>
<path d="M2806 965 c-9 -26 -7 -32 5 -12 6 10 9 21 6 23 -2 3 -7 -2 -11 -11z"/>
<path d="M3130 976 c0 -2 7 -7 16 -10 8 -3 12 -2 9 4 -6 10 -25 14 -25 6z"/>
<path d="M2820 926 c0 -2 8 -10 18 -17 15 -13 16 -12 3 4 -13 16 -21 21 -21
13z"/>
<path d="M3201 927 c2 -1 13 -9 24 -17 19 -14 19 -14 6 3 -7 9 -18 17 -24 17
-6 0 -8 -1 -6 -3z"/>
<path d="M3160 906 c0 -2 7 -7 16 -10 8 -3 12 -2 9 4 -6 10 -25 14 -25 6z"/>
<path d="M3240 876 c0 -2 9 -6 20 -9 11 -3 18 -1 14 4 -5 9 -34 13 -34 5z"/>
<path d="M3055 860 c-3 -6 1 -7 9 -4 18 7 21 14 7 14 -6 0 -13 -4 -16 -10z"/>
<path d="M2687 843 c5 -12 3 -14 -7 -8 -9 5 -11 4 -6 -4 4 -6 11 -9 16 -6 4 3
10 -1 13 -7 3 -10 8 -10 18 1 9 9 9 11 2 7 -8 -4 -13 -1 -13 7 0 8 -7 17 -14
20 -11 4 -13 1 -9 -10z"/>
<path d="M3215 850 c-3 -5 -1 -10 4 -10 6 0 11 5 11 10 0 6 -2 10 -4 10 -3 0
-8 -4 -11 -10z"/>
<path d="M2638 843 c7 -3 16 -2 19 1 4 3 -2 6 -13 5 -11 0 -14 -3 -6 -6z"/>
<path d="M2636 819 c3 -5 9 -7 14 -4 4 3 11 0 13 -5 3 -6 4 -5 3 1 -1 7 -10
13 -19 15 -9 1 -15 -2 -11 -7z"/>
<path d="M2735 811 c-3 -5 -2 -12 3 -15 5 -3 9 1 9 9 0 17 -3 19 -12 6z"/>
<path d="M2880 816 c0 -2 7 -9 15 -16 9 -7 15 -8 15 -2 0 5 -7 12 -15 16 -8 3
-15 4 -15 2z"/>
<path d="M2705 790 c-3 -5 -12 -7 -20 -3 -8 3 -15 0 -15 -7 0 -9 10 -11 31 -6
26 5 29 3 25 -12 -4 -13 -1 -18 13 -18 19 0 19 1 -1 28 -21 31 -24 32 -33 18z"/>
<path d="M2781 774 c0 -11 3 -14 6 -6 3 7 2 16 -1 19 -3 4 -6 -2 -5 -13z"/>
<path d="M2850 780 c8 -5 20 -10 25 -10 6 0 3 5 -5 10 -8 5 -19 10 -25 10 -5
0 -3 -5 5 -10z"/>
<path d="M3086 775 c4 -8 8 -15 10 -15 2 0 4 7 4 15 0 8 -4 15 -10 15 -5 0 -7
-7 -4 -15z"/>
<path d="M2657 395 c6 -18 34 -16 41 3 2 7 -6 12 -22 12 -19 0 -24 -4 -19 -15z"/>
<path d="M2557 353 c-12 -12 -7 -22 8 -17 8 4 15 10 15 15 0 11 -14 12 -23 2z"/>
<path d="M2900 270 c0 -5 5 -10 10 -10 6 0 10 5 10 10 0 6 -4 10 -10 10 -5 0
-10 -4 -10 -10z"/>
<path d="M2530 216 c0 -9 7 -16 16 -16 9 0 14 5 12 12 -6 18 -28 21 -28 4z"/>
</g>
</svg>
